<svg xmlns="http://www.w3.org/2000/svg" viewBox="0 0 260 160" role="img" aria-labelledby="title">
  <title id="title">Spanish Cheese</title>
  <g transform="translate(16 16)">
    <path d="M24 88c18 31 68 45 117 35 31-6 56-21 72-41-18 12-43 22-73 26-41 6-84-2-111-22z" fill="#c90912"/>
    <path d="M15 76c18 37 76 55 133 43 31-7 56-22 72-43-22 14-51 24-84 27-48 4-95-8-121-42z" fill="#f04b12"/>
    <path d="M35 75c19 25 64 36 108 27 29-6 52-20 65-38-19 10-43 16-70 17-41 1-77-10-103-31z" fill="#ffd200"/>
    <path d="M67 89c-2-23 17-43 43-46 25-3 47 11 50 32 2 22-18 42-44 45-25 3-46-11-49-31z" fill="#ffd600"/>
    <path d="M45 9c9-10 29-13 43-4 9 6 10 16 2 22-9 6-25 5-36 12-9 5-10 14-3 21 11 12 34 13 53 6" fill="none" stroke="#050505" stroke-width="5.5" stroke-linecap="round"/>
    <text x="79" y="43" fill="#050505" font-family="Georgia, 'Times New Roman', serif" font-size="42" font-style="italic">Spanish</text>
    <text x="70" y="88" fill="#050505" font-family="Georgia, 'Times New Roman', serif" font-size="48" font-style="italic">Cheese</text>
  </g>
</svg>
